<svg width="19" height="33" viewBox="0 0 19 33" fill="none" xmlns="http://www.w3.org/2000/svg">
<path d="M0.726558 32.2736C0.261343 31.8084 -1.68734e-07 31.1775 -1.68734e-07 30.5196C-1.68734e-07 29.8618 0.261343 29.2308 0.726558 28.7656L13.0101 16.485L0.726558 4.20445C0.274528 3.73654 0.0244037 3.10986 0.0300576 2.45937C0.0357116 1.80888 0.296691 1.18663 0.756786 0.726645C1.21688 0.266662 1.83928 0.00574837 2.48993 9.57823e-05C3.14058 -0.0055568 3.76742 0.244506 4.23544 0.696426L18.2734 14.731C18.7387 15.1963 19 15.8272 19 16.485C19 17.1429 18.7387 17.7738 18.2734 18.239L4.23544 32.2736C3.77008 32.7387 3.13901 33 2.481 33C1.82299 33 1.19191 32.7387 0.726558 32.2736Z" fill="white"/>
</svg>
