<svg width="19" height="33" viewBox="0 0 19 33" fill="none" xmlns="http://www.w3.org/2000/svg">
<path d="M18.2734 0.726381C18.7387 1.19162 19 1.82254 19 2.48039C19 3.13825 18.7387 3.76916 18.2734 4.23441L5.98988 16.515L18.2734 28.7955C18.7255 29.2635 18.9756 29.8901 18.9699 30.5406C18.9643 31.1911 18.7033 31.8134 18.2432 32.2734C17.7831 32.7333 17.1607 32.9943 16.5101 32.9999C15.8594 33.0056 15.2326 32.7555 14.7646 32.3036L0.726558 18.269C0.261343 17.8037 0 17.1728 0 16.515C0 15.8571 0.261343 15.2262 0.726558 14.761L14.7646 0.726381C15.2299 0.261279 15.861 0 16.519 0C17.177 0 17.8081 0.261279 18.2734 0.726381Z" fill="white"/>
</svg>
