<svg width="35" height="35" viewBox="0 0 35 35" fill="none" xmlns="http://www.w3.org/2000/svg">
<path d="M13.8387 0.00437518L14.9019 0H20.0996L21.1642 0.00437518L22.4972 0.0189591L23.1287 0.0291679L23.7383 0.0452102L24.326 0.0656277L24.8919 0.088962L25.4373 0.119588L25.9623 0.156048L26.4655 0.1998L26.9511 0.247927C29.4887 0.533772 31.2286 1.1463 32.5411 2.45885C33.8537 3.77141 34.4662 5.50981 34.7521 8.04888L34.8017 8.53452L34.8439 9.03913L34.8804 9.56415L34.9096 10.1081L34.946 10.9657L34.9635 11.5636L34.9825 12.5028L34.9956 13.8372L35.0015 15.2665L35 20.0981L34.9956 21.1628L34.981 22.4957L34.9708 23.1272L34.9548 23.7368L34.9344 24.3246L34.911 24.8904L34.8804 25.4359L34.8439 25.9609L34.8002 26.464L34.7521 26.9497C34.4662 29.4873 33.8537 31.2271 32.5411 32.5397C31.2286 33.8522 29.4902 34.4648 26.9511 34.7506L26.4655 34.8002L25.9609 34.8425L25.4358 34.879L24.8919 34.9081L24.0343 34.9446L23.4364 34.9621L22.4972 34.981L21.1628 34.9942L19.7335 35L14.9019 34.9985L13.8372 34.9942L12.5043 34.9796L11.8728 34.9694L11.2632 34.9533L10.6754 34.9329L10.1096 34.9096L9.56415 34.879L9.03913 34.8425L8.53598 34.7987L8.05033 34.7506C5.51273 34.4648 3.77287 33.8522 2.46031 32.5397C1.14776 31.2271 0.535231 29.4887 0.249385 26.9497L0.1998 26.464L0.157507 25.9594L0.121047 25.4344L0.0918788 24.8904L0.055419 24.0329L0.0379182 23.4349L0.0189591 22.4957L0.00583358 21.1613L0 19.7321L0.00145839 14.9004L0.00583358 13.8358L0.0204175 12.5028L0.0306263 11.8713L0.0466686 11.2617L0.0670861 10.674L0.0904204 10.1081L0.121047 9.56269L0.157507 9.03767L0.201258 8.53452L0.249385 8.04888C0.535231 5.51127 1.14776 3.77141 2.46031 2.45885C3.77287 1.1463 5.51127 0.533772 8.05033 0.247927L8.53598 0.198342L9.04058 0.156048L9.56561 0.119588L10.1096 0.0904204L10.9671 0.0539606L11.5651 0.0364599L12.5043 0.0175007L13.8387 0.00437518ZM9.90249 10.6448H5.9065C6.09609 19.7452 10.6463 25.2142 18.6237 25.2142H19.0758V20.0077C22.0072 20.2994 24.2239 22.4432 25.1135 25.2142H29.2554C28.1178 21.0723 25.1281 18.7827 23.2614 17.9076C25.1281 16.8284 27.7532 14.2033 28.3803 10.6448H24.6177C23.801 13.5324 21.3801 16.1575 19.0758 16.4055V10.6448H15.3131V20.7369C12.9797 20.1535 10.0338 17.3243 9.90249 10.6448Z" fill="#DA0463"/>
</svg>
