<svg width="111" height="99" viewBox="0 0 111 99" fill="none" xmlns="http://www.w3.org/2000/svg">
<path d="M26.0358 3.68488C26.6884 2.5639 27.625 1.6335 28.7517 0.986812C29.8784 0.34012 31.1557 -0.00017151 32.4558 6.48486e-08H49.7045C51.0046 -0.00017151 52.2819 0.34012 53.4086 0.986812C54.5353 1.6335 55.4719 2.5639 56.1245 3.68488L64.734 18.4836C65.391 19.612 65.737 20.8934 65.737 22.1981C65.737 23.5027 65.391 24.7842 64.734 25.9126L56.1245 40.7113C55.4719 41.8323 54.5353 42.7627 53.4086 43.4093C52.2819 44.056 51.0046 44.3963 49.7045 44.3962H32.4558C31.1557 44.3963 29.8784 44.056 28.7517 43.4093C27.625 42.7627 26.6884 41.8323 26.0358 40.7113L17.4263 25.9126C16.7693 24.7842 16.4233 23.5027 16.4233 22.1981C16.4233 20.8934 16.7693 19.612 17.4263 18.4836L26.0358 3.68488ZM32.4558 51.7955C31.1557 51.7953 29.8784 52.1356 28.7517 52.7823C27.625 53.429 26.6884 54.3594 26.0358 55.4804L17.4263 70.2791C16.7693 71.4075 16.4233 72.6889 16.4233 73.9936C16.4233 75.2983 16.7693 76.5797 17.4263 77.7081L26.0358 92.5068C26.6884 93.6278 27.625 94.5582 28.7517 95.2049C29.8784 95.8516 31.1557 96.1918 32.4558 96.1917H49.7045C51.0046 96.1918 52.2819 95.8516 53.4086 95.2049C54.5353 94.5582 55.4719 93.6278 56.1245 92.5068L64.734 77.7081C65.391 76.5797 65.737 75.2983 65.737 73.9936C65.737 72.6889 65.391 71.4075 64.734 70.2791L56.1245 55.4804C55.4719 54.3594 54.5353 53.429 53.4086 52.7823C52.2819 52.1356 51.0046 51.7953 49.7045 51.7955H32.4558ZM70.5677 29.5826C71.2203 28.4617 72.1569 27.5313 73.2836 26.8846C74.4103 26.2379 75.6876 25.8976 76.9877 25.8978H94.2364C95.5365 25.8976 96.8138 26.2379 97.9405 26.8846C99.0672 27.5313 100.004 28.4617 100.656 29.5826L109.266 44.3814C109.923 45.5097 110.269 46.7912 110.269 48.0958C110.269 49.4005 109.923 50.682 109.266 51.8103L100.656 66.609C100.004 67.73 99.0672 68.6604 97.9405 69.3071C96.8138 69.9538 95.5365 70.2941 94.2364 70.2939H76.9877C75.6876 70.2941 74.4103 69.9538 73.2836 69.3071C72.1569 68.6604 71.2203 67.73 70.5677 66.609L61.9582 51.8103C61.3013 50.682 60.9552 49.4005 60.9552 48.0958C60.9552 46.7912 61.3013 45.5097 61.9582 44.3814L70.5677 29.5826Z" fill="url(#paint0_linear_75_27)"/>
<path d="M28.2456 3.88812C25.8663 3.84046 23.7604 4.93678 22.41 6.65276L22.3778 6.70042C22.3627 6.72231 22.3466 6.74352 22.3296 6.76398C22.3124 6.78429 22.2963 6.8055 22.2814 6.82753L15.6741 15.6219C13.1777 16.3954 10.9399 17.823 9.19872 19.753C8.77189 19.7688 8.34657 19.8123 7.9255 19.8833V19.7133C7.9255 17.9655 6.94487 16.4084 5.36942 15.6299L4.27625 15.0261C4.18125 14.9802 4.07803 14.9532 3.97249 14.9467C3.86695 14.9403 3.76115 14.9544 3.66113 14.9883C3.56111 15.0223 3.46884 15.0753 3.38957 15.1445C3.31031 15.2137 3.24561 15.2976 3.19916 15.3915C3.15272 15.4854 3.12544 15.5874 3.11889 15.6918C3.11233 15.7961 3.12663 15.9006 3.16096 15.9995C3.1953 16.0983 3.249 16.1895 3.31899 16.2679C3.38899 16.3462 3.47391 16.4102 3.56891 16.4561L4.646 17.0598C5.67487 17.5683 6.3179 18.5852 6.3179 19.7133V20.3059C4.46052 20.9804 2.85802 22.2033 1.72782 23.8086C0.597611 25.414 -0.00559248 27.3241 3.90758e-05 29.2798C3.90758e-05 34.4166 4.09459 38.6303 9.22766 38.8067C10.8617 40.606 12.9301 41.9671 15.2401 42.763V43.0553C15.2401 43.8656 14.9186 44.6442 14.3398 45.2162L13.2949 46.2489C12.8287 46.7097 12.8287 47.4724 13.2949 47.9331C13.536 48.1715 13.8415 48.2827 14.1469 48.2827C14.4524 48.2827 14.7578 48.1715 14.9989 47.9331L16.0439 46.9004C16.9954 45.9541 17.5642 44.6969 17.6434 43.3651C18.2854 43.4689 18.9336 43.5299 19.5838 43.5479H25.7281C25.8406 44.8094 26.3872 45.9852 27.3132 46.9004L28.3581 47.9331C28.5992 48.1715 28.9047 48.2827 29.2101 48.2827C29.5156 48.2827 29.821 48.1715 30.0622 47.9331C30.5284 47.4724 30.5284 46.7097 30.0622 46.2489L29.0172 45.2162C28.5603 44.7632 28.2594 44.1795 28.1571 43.5479H29.1137C30.1861 43.5481 31.2543 43.4157 32.2935 43.1538C32.4932 43.7311 32.8706 44.2323 33.3727 44.5873C33.8748 44.9423 34.4766 45.1332 35.0939 45.1336H37.4571C38.1162 45.1336 38.6628 44.5774 38.6628 43.926C38.6628 43.2746 38.1162 42.7344 37.4571 42.7344H35.0939C34.9753 42.7353 34.8596 42.6978 34.7646 42.6274C34.6696 42.5571 34.6006 42.4579 34.5683 42.3451C36.7889 41.3172 38.6659 39.6832 39.9778 37.6357L45.598 29.9869L47.0062 29.6898C47.4725 29.5785 47.4725 28.9271 47.0062 28.8318L45.598 28.5346L39.9778 20.8858C38.4593 18.5164 36.1905 16.7098 33.5249 15.7474C34.7349 14.3992 35.3819 12.6473 35.3351 10.8458C35.2386 7.04838 32.0877 3.95009 28.2456 3.88654V3.88812ZM30.4126 40.2827C29.9821 40.3402 29.5481 40.3688 29.1137 40.3685H25.0882V18.1562H29.1137C29.5509 18.1562 29.985 18.1848 30.4126 18.242V40.2827ZM38.4506 34.3086V24.2145L42.1577 29.2623L38.4506 34.3086ZM11.3738 36.4027C11.6822 36.0169 11.8494 35.5392 11.848 35.0474V23.4963C11.848 22.98 11.6664 22.5065 11.3642 22.1363C12.8421 20.3897 14.8268 19.1336 17.0502 18.5375V39.9904C14.8318 39.3956 12.8508 38.1435 11.3738 36.4027ZM7.13778 30.8337C6.71142 30.8337 6.30252 30.6663 6.00104 30.3684C5.69955 30.0704 5.53018 29.6663 5.53018 29.2449C5.53018 28.8235 5.69955 28.4193 6.00104 28.1214C6.30252 27.8234 6.71142 27.656 7.13778 27.656C7.56414 27.656 7.97304 27.8234 8.27452 28.1214C8.57601 28.4193 8.74538 28.8235 8.74538 29.2449C8.74538 29.6663 8.57601 30.0704 8.27452 30.3684C7.97304 30.6663 7.56414 30.8337 7.13778 30.8337Z" fill="black"/>
<path d="M55.1352 32.8459C55.1352 32.8459 84.461 44.5766 82.1158 59.8265C79.7706 75.0763 45.7519 90.3263 29.3277 80.9417C12.9035 71.5572 24.6345 48.0958 42.2314 52.7881C59.8284 57.4803 50.9249 97 50.9249 97" stroke="white" stroke-width="2.5" stroke-linecap="round" stroke-dasharray="8 8"/>
<defs>
<linearGradient id="paint0_linear_75_27" x1="98.5382" y1="16.423" x2="2.34651" y2="31.6729" gradientUnits="userSpaceOnUse">
<stop stop-color="#DA0463"/>
<stop offset="1" stop-color="#FCDA05"/>
</linearGradient>
</defs>
</svg>
