<svg width="36" height="35" viewBox="0 0 36 35" fill="none" xmlns="http://www.w3.org/2000/svg">
<path d="M17.8234 4.76389e-05C13.0887 0.0216411 8.55541 1.87491 5.21525 5.15446C1.8751 8.434 -5.15557e-05 12.8729 1.06313e-09 17.5C1.06314e-09 22.1413 1.88662 26.5925 5.24483 29.8744C8.60304 33.1563 13.1578 35 17.907 35C22.6562 35 27.2109 33.1563 30.5691 29.8744C33.9273 26.5925 35.814 22.1413 35.814 17.5C35.814 12.8587 33.9273 8.40755 30.5691 5.12567C27.2109 1.84379 22.6562 4.76389e-05 17.907 4.76389e-05C17.8791 -1.58796e-05 17.8513 -1.58796e-05 17.8234 4.76389e-05ZM25.2279 10.535C25.3772 10.5321 25.707 10.5686 25.9218 10.7392C26.0646 10.8604 26.1557 11.0295 26.177 11.2132C26.2009 11.3488 26.2307 11.6594 26.2069 11.9015C25.9383 14.6694 24.7713 21.3836 24.1774 24.4825C23.9267 25.795 23.4328 26.234 22.9538 26.2763C21.9152 26.3711 21.1258 25.6054 20.1185 24.9608C18.5427 23.9502 17.6518 23.3217 16.1222 22.3359C14.3539 21.1984 15.5 20.5713 16.5072 19.5504C16.7714 19.2821 21.3526 15.209 21.4421 14.84C21.4526 14.7934 21.463 14.6213 21.3585 14.5309C21.2541 14.4404 21.0989 14.4711 20.987 14.4959C20.8288 14.5309 18.3114 16.1584 13.4347 19.374C12.7184 19.8552 12.0723 20.0886 11.4918 20.074C10.8531 20.0623 9.62351 19.7225 8.70876 19.4323C7.58659 19.075 6.69572 18.8869 6.77331 18.2817C6.8136 17.9667 7.25829 17.6444 8.10589 17.3148C13.3258 15.0923 16.8057 13.6267 18.5486 12.9194C23.5208 10.8982 24.5549 10.5467 25.2279 10.535Z" fill="#DA0463"/>
</svg>
